<svg xmlns="http://www.w3.org/2000/svg"
 width="200.000000pt" height="200.000000pt" viewBox="0 0 200.000000 200.000000"
 preserveAspectRatio="xMidYMid meet">
<metadata>
Created by potrace 1.11, written by Peter Selinger 2001-2013
</metadata>
<g transform="translate(0.000000,200.000000) scale(0.100000,-0.100000)"
fill="#000000" stroke="none">
<path d="M420 1356 c-136 -28 -258 -145 -284 -271 -13 -65 -13 -82 -5 -143 34
-245 307 -387 527 -274 68 35 88 55 69 70 -11 9 -30 3 -85 -25 -64 -33 -80
-37 -147 -36 -145 1 -265 88 -306 225 -36 117 -12 222 71 312 112 122 302 137
430 36 57 -45 100 -24 48 22 -87 75 -206 107 -318 84z"/>
<path d="M452 1288 c-232 -35 -333 -312 -177 -486 64 -71 120 -96 220 -96 67
0 88 4 132 27 62 32 71 44 49 65 -14 14 -17 14 -34 -1 -53 -48 -173 -62 -247
-28 -82 37 -144 126 -147 213 -6 133 91 248 218 261 56 6 138 -16 180 -48 33
-25 37 -26 52 -12 14 15 14 18 -9 38 -63 55 -151 80 -237 67z"/>
<path d="M480 1008 c0 -43 4 -78 9 -78 11 0 12 123 0 141 -5 9 -9 -14 -9 -63z"/>
<path d="M530 1007 c0 -42 4 -77 9 -77 12 0 10 135 -1 146 -5 4 -8 -27 -8 -69z"/>
<path d="M387 1040 c-35 -77 -46 -110 -36 -110 6 0 13 9 16 20 4 14 14 20 33
20 20 0 31 -6 35 -20 3 -11 11 -20 16 -20 12 0 5 24 -26 95 l-22 50 -16 -35z
m28 -50 c-3 -5 -12 -7 -20 -4 -11 5 -12 11 -2 31 11 25 11 25 19 3 4 -12 6
-26 3 -30z"/>
<path d="M620 1058 c0 -7 9 -28 20 -46 11 -18 20 -47 20 -64 0 -37 13 -29 16
10 1 15 12 45 24 65 12 21 20 40 17 44 -4 3 -16 -11 -28 -32 l-22 -37 -19 36
c-19 37 -28 45 -28 24z"/>
<path d="M1109 1066 c-1 -1 -2 -31 -3 -69 -2 -45 1 -66 8 -64 6 2 10 15 9 29
-1 21 2 24 28 23 37 -2 38 13 2 17 -20 2 -29 9 -31 26 -3 19 1 22 27 22 17 0
31 4 31 10 0 7 -64 12 -71 6z"/>
<path d="M1610 1060 c0 -5 5 -10 11 -10 5 0 7 5 4 10 -3 6 -8 10 -11 10 -2 0
-4 -4 -4 -10z"/>
<path d="M1653 1035 c-6 -7 -9 -16 -5 -20 4 -4 8 -15 8 -26 1 -10 2 -27 3 -38
0 -10 10 -21 21 -24 22 -6 28 8 7 16 -20 8 -20 64 0 76 16 9 16 10 1 11 -9 0
-18 4 -20 9 -1 5 -8 3 -15 -4z"/>
<path d="M738 1004 c-10 -21 -9 -31 2 -52 37 -64 115 -7 80 59 -16 30 -67 26
-82 -7z m60 7 c8 -5 12 -21 10 -37 -2 -23 -8 -29 -28 -29 -20 0 -26 6 -28 29
-3 25 10 46 28 46 3 0 11 -4 18 -9z"/>
<path d="M855 988 c1 -24 3 -46 4 -49 2 -11 38 -17 52 -8 8 4 16 3 20 -3 4 -6
9 14 10 46 3 37 0 56 -7 56 -7 0 -10 -13 -9 -30 3 -37 -16 -65 -39 -57 -11 4
-16 19 -16 47 0 22 -4 40 -9 40 -4 0 -7 -19 -6 -42z"/>
<path d="M974 974 c1 -58 13 -60 18 -4 2 25 10 38 28 47 24 12 24 12 -11 11
l-36 -1 1 -53z"/>
<path d="M1210 1022 c0 -5 11 -7 25 -4 18 3 25 0 25 -11 0 -8 -13 -17 -30 -20
-20 -5 -30 -12 -30 -25 0 -28 19 -42 46 -32 15 6 24 5 28 -3 3 -7 4 13 3 43
-2 54 -2 55 -34 58 -18 2 -33 -1 -33 -6z m50 -57 c0 -19 -24 -30 -41 -19 -9 5
-7 11 6 21 24 17 35 17 35 -2z"/>
<path d="M1300 1027 c0 -21 35 -97 45 -97 7 0 20 21 29 47 19 54 18 53 8 53
-5 0 -15 -19 -22 -42 l-13 -43 -13 30 c-7 17 -13 36 -14 43 0 10 -20 19 -20 9z"/>
<path d="M1412 1013 c-17 -33 -3 -78 27 -86 45 -11 83 57 49 91 -18 18 -66 15
-76 -5z m56 -2 c22 -14 11 -65 -15 -69 -26 -4 -39 28 -23 58 12 22 18 24 38
11z"/>
<path d="M1529 1013 c-2 -17 -2 -48 0 -75 1 -18 3 -20 10 -8 6 8 7 18 4 23
-10 16 7 54 29 65 22 10 21 11 -9 9 -19 -1 -33 -7 -34 -14z"/>
<path d="M1609 1028 c-6 -17 -2 -97 5 -95 11 4 15 97 4 97 -5 0 -8 -1 -9 -2z"/>
<path d="M1732 1018 c-13 -13 -16 -57 -4 -75 7 -12 25 -16 55 -14 28 2 19 17
-10 16 -17 0 -29 6 -31 16 -2 12 5 15 28 14 37 -2 45 7 30 35 -12 22 -49 27
-68 8z m48 -13 c11 -13 8 -15 -14 -15 -25 0 -33 10 -19 23 10 11 19 8 33 -8z"/>
<path d="M1830 1010 c0 -12 10 -25 25 -32 36 -16 32 -38 -7 -38 -24 0 -29 -3
-19 -9 16 -10 50 -6 64 8 15 15 1 40 -28 51 -32 12 -23 34 11 27 13 -2 24 0
24 4 0 5 -16 9 -35 9 -28 0 -35 -4 -35 -20z"/>
</g>
</svg>
